# xmcd
#
# Track frame offsets:
#	150
#	14814
#	28645
#	42762
#	56431
#	69195
#	81669
#	108306
#	133687
#	147062
#	158983
#	171113
#	184887
#	198649
#	213593
#	228202
#	244740
#	264000
#	274242
#	288725
#
# Disc length: 4016 seconds
#
# Revision: 0
# Processed by: cddbd v1.5.2PL0 Copyright (c) Steve Scherf et al.
# Submitted via: dBpowerAMP V4.0
#
DISCID=280fae14
DTITLE=Josh White - Bluesman, Guitar Evangelist, Folksinger
DYEAR=2007
DGENRE=Blues
TTITLE0=01 Black and Evil Blues
TTITLE1=02 Howling Wolf Blues
TTITLE2=03 Greenville Sheik
TTITLE3=04 Low Cotton
TTITLE4=05 Blood Red River
TTITLE5=06 Defense Factory Blues
TTITLE6=07 Jelly, jelly!
TTITLE7=08 Careless love
TTITLE8=09 I Know how to do it
TTITLE9=10 Prison Bound Blues
TTITLE10=11 Motherless Children
TTITLE11=12 Paul and Silas Bound to Jail
TTITLE12=13 Strange Fruit
TTITLE13=14 The House of the Rising Son
TTITLE14=15 John Henry
TTITLE15=16 Saint James Infirmary
TTITLE16=17 Jesus Gonna make up my Dying Bed
TTITLE17=18 Jerry the Mule (Timber)
TTITLE18=19 Midnight Special
TTITLE19=20 Jim Crow Train
EXTD=
EXTT0=
EXTT1=
EXTT2=
EXTT3=
EXTT4=
EXTT5=
EXTT6=
EXTT7=
EXTT8=
EXTT9=
EXTT10=
EXTT11=
EXTT12=
EXTT13=
EXTT14=
EXTT15=
EXTT16=
EXTT17=
EXTT18=
EXTT19=
PLAYORDER=
